ffmpeg started on 2025-06-03 at 19:26:54
Report written to "D:\Convert\FFMetrics\reports\ssim_report-6.txt"
Log level: 32
Command line:
ffmpeg -hide_banner -nostdin -i "G:\\\xc0\xed\xe8\xec\xe5\\\xce\xed\xe3\xee\xe8\xed\xe3\xe8\\!_36_\xce\xf1\xe5\xed\xfc_2024\\DreamCast\\\xc1\xe0\xf8\xed\xff \xc1\xee\xe3\xe0\\\xd2\xc2-2\\[DC] Kami no Tou - Ouji no Kikan - 04_Telegram_HEVC.mkv" -i "G:\\\xc0\xed\xe8\xec\xe5\\\xce\xed\xe3\xee\xe8\xed\xe3\xe8\\!_36_\xce\xf1\xe5\xed\xfc_2024\\DreamCast\\\xc1\xe0\xf8\xed\xff \xc1\xee\xe3\xe0\\\xd2\xc2-2\\[DC] Kami no Tou - Ouji no Kikan - 04_Telegram.mp4" -lavfi "[0:v]settb=AVTB,setpts=PTS-STARTPTS,format=pix_fmts=yuv420p10,fps=24000/1001,scale=1920:1080:flags=bicubic[main];[1:v]settb=AVTB,setpts=PTS-STARTPTS,format=pix_fmts=yuv420p,fps=24000/1001,scale=1920:1080:flags=bicubic[ref];[main][ref]ssim=eof_action=endall:stats_file='D\\:/Convert/FFMetrics/logs/ssim_logfile-6.txt'" -f null -
Input #0, matroska,webm, from 'G:\Аниме\Онгоинги\!_36_Осень_2024\DreamCast\Башня Бога\ТВ-2\[DC] Kami no Tou - Ouji no Kikan - 04_Telegram_HEVC.mkv':
  Metadata:
    COMPATIBLE_BRANDS: isomiso2avc1mp41
    MAJOR_BRAND     : isom
    MINOR_VERSION   : 512
    ENCODER         : Lavf61.7.100
  Duration: 00:23:47.93, start: -0.021000, bitrate: 1236 kb/s
  Stream #0:0: Video: hevc (Main 10), yuv420p10le(tv, bt709, progressive), 1920x1080 [SAR 1:1 DAR 16:9], 23.98 fps, 23.98 tbr, 1k tbn (default)
      Metadata:
        HANDLER_NAME    : VideoHandler
        VENDOR_ID       : [0][0][0][0]
        ENCODER         : Lavc61.19.100 libx265
        BPS             : 1039223
        DURATION        : 00:23:47.592708333
        NUMBER_OF_FRAMES: 34228
        NUMBER_OF_BYTES : 185448350
        _STATISTICS_WRITING_APP: mkvpropedit v66.0.0 ('Josie') 64-bit
        _STATISTICS_WRITING_DATE_UTC: 2025-05-29 16:11:13
        _STATISTICS_TAGS: BPS DURATION NUMBER_OF_FRAMES NUMBER_OF_BYTES
  Stream #0:1: Audio: aac (LC), 48000 Hz, stereo, fltp (default)
      Metadata:
        HANDLER_NAME    : SoundHandler
        VENDOR_ID       : [0][0][0][0]
        ENCODER         : Lavc61.19.100 aac
        BPS             : 193474
        DURATION        : 00:23:47.925000000
        NUMBER_OF_FRAMES: 66935
        NUMBER_OF_BYTES : 34533440
        _STATISTICS_WRITING_APP: mkvpropedit v66.0.0 ('Josie') 64-bit
        _STATISTICS_WRITING_DATE_UTC: 2025-05-29 16:11:13
        _STATISTICS_TAGS: BPS DURATION NUMBER_OF_FRAMES NUMBER_OF_BYTES
Input #1, mov,mp4,m4a,3gp,3g2,mj2, from 'G:\Аниме\Онгоинги\!_36_Осень_2024\DreamCast\Башня Бога\ТВ-2\[DC] Kami no Tou - Ouji no Kikan - 04_Telegram.mp4':
  Metadata:
    major_brand     : isom
    minor_version   : 512
    compatible_brands: isomiso2avc1mp41
    encoder         : Lavf61.1.100
  Duration: 00:23:47.89, start: 0.000000, bitrate: 3307 kb/s
  Stream #1:0[0x1](und): Video: h264 (High) (avc1 / 0x31637661), yuv420p(tv, bt709, progressive), 1920x1080 [SAR 1:1 DAR 16:9], 3160 kb/s, 23.98 fps, 23.98 tbr, 24k tbn (default)
      Metadata:
        handler_name    : VideoHandler
        vendor_id       : [0][0][0][0]
        encoder         : Lavc61.3.100 h264_qsv
  Stream #1:1[0x2](und): Audio: aac (HE-AACv2) (mp4a / 0x6134706D), 48000 Hz, stereo, fltp, 144 kb/s (default)
      Metadata:
        handler_name    : SoundHandler
        vendor_id       : [0][0][0][0]
Stream mapping:
  Stream #0:0 (hevc) -> settb:default
  Stream #1:0 (h264) -> settb:default
  ssim:default -> Stream #0:0 (wrapped_avframe)
  Stream #0:1 -> #0:1 (aac (native) -> pcm_s16le (native))
Output #0, null, to 'pipe:':
  Metadata:
    COMPATIBLE_BRANDS: isomiso2avc1mp41
    MAJOR_BRAND     : isom
    MINOR_VERSION   : 512
    encoder         : Lavf61.7.100
  Stream #0:0: Video: wrapped_avframe, yuv420p10le(tv, bt709, progressive), 1920x1080 [SAR 1:1 DAR 16:9], q=2-31, 200 kb/s, 23.98 fps, 23.98 tbn
      Metadata:
        encoder         : Lavc61.19.100 wrapped_avframe
  Stream #0:1: Audio: pcm_s16le, 48000 Hz, stereo, s16, 1536 kb/s (default)
      Metadata:
        HANDLER_NAME    : SoundHandler
        VENDOR_ID       : [0][0][0][0]
        _STATISTICS_TAGS: BPS DURATION NUMBER_OF_FRAMES NUMBER_OF_BYTES
        BPS             : 193474
        DURATION        : 00:23:47.925000000
        NUMBER_OF_FRAMES: 66935
        NUMBER_OF_BYTES : 34533440
        _STATISTICS_WRITING_APP: mkvpropedit v66.0.0 ('Josie') 64-bit
        _STATISTICS_WRITING_DATE_UTC: 2025-05-29 16:11:13
        encoder         : Lavc61.19.100 pcm_s16le
frame=  190 fps=0.0 q=-0.0 size=N/A time=00:00:07.92 bitrate=N/A speed=15.1x    frame=  436 fps=422 q=-0.0 size=N/A time=00:00:18.18 bitrate=N/A speed=17.6x    frame=  696 fps=448 q=-0.0 size=N/A time=00:00:29.02 bitrate=N/A speed=18.7x    frame=  958 fps=464 q=-0.0 size=N/A time=00:00:39.95 bitrate=N/A speed=19.4x    frame= 1237 fps=479 q=-0.0 size=N/A time=00:00:51.59 bitrate=N/A speed=  20x    frame= 1521 fps=492 q=-0.0 size=N/A time=00:01:03.43 bitrate=N/A speed=20.5x    frame= 1781 fps=492 q=-0.0 size=N/A time=00:01:14.28 bitrate=N/A speed=20.5x    frame= 2036 fps=493 q=-0.0 size=N/A time=00:01:24.91 bitrate=N/A speed=20.6x    frame= 2321 fps=499 q=-0.0 size=N/A time=00:01:36.80 bitrate=N/A speed=20.8x    frame= 2598 fps=503 q=-0.0 size=N/A time=00:01:48.35 bitrate=N/A speed=  21x    frame= 2876 fps=507 q=-0.0 size=N/A time=00:01:59.95 bitrate=N/A speed=21.1x    frame= 3136 fps=506 q=-0.0 size=N/A time=00:02:10.79 bitrate=N/A speed=21.1x    frame= 3389 fps=504 q=-0.0 size=N/A time=00:02:21.34 bitrate=N/A speed=  21x    frame= 3656 fps=505 q=-0.0 size=N/A time=00:02:32.48 bitrate=N/A speed=21.1x    frame= 3944 fps=508 q=-0.0 size=N/A time=00:02:44.49 bitrate=N/A speed=21.2x    frame= 4223 fps=511 q=-0.0 size=N/A time=00:02:56.13 bitrate=N/A speed=21.3x    frame= 4510 fps=513 q=-0.0 size=N/A time=00:03:08.10 bitrate=N/A speed=21.4x    frame= 4691 fps=504 q=-0.0 size=N/A time=00:03:15.65 bitrate=N/A speed=  21x    frame= 4815 fps=491 q=-0.0 size=N/A time=00:03:20.82 bitrate=N/A speed=20.5x    frame= 4978 fps=482 q=-0.0 size=N/A time=00:03:27.62 bitrate=N/A speed=20.1x    frame= 5110 fps=471 q=-0.0 size=N/A time=00:03:33.12 bitrate=N/A speed=19.7x    frame= 5250 fps=462 q=-0.0 size=N/A time=00:03:38.96 bitrate=N/A speed=19.3x    frame= 5381 fps=453 q=-0.0 size=N/A time=00:03:44.43 bitrate=N/A speed=18.9x    frame= 5525 fps=446 q=-0.0 size=N/A time=00:03:50.43 bitrate=N/A speed=18.6x    frame= 5689 fps=441 q=-0.0 size=N/A time=00:03:57.27 bitrate=N/A speed=18.4x    frame= 5871 fps=437 q=-0.0 size=N/A time=00:04:04.86 bitrate=N/A speed=18.2x    frame= 6026 fps=432 q=-0.0 size=N/A time=00:04:11.33 bitrate=N/A speed=  18x    frame= 6147 fps=425 q=-0.0 size=N/A time=00:04:16.38 bitrate=N/A speed=17.7x    frame= 6257 fps=418 q=-0.0 size=N/A time=00:04:20.96 bitrate=N/A speed=17.4x    frame= 6370 fps=411 q=-0.0 size=N/A time=00:04:25.68 bitrate=N/A speed=17.1x    frame= 6500 fps=406 q=-0.0 size=N/A time=00:04:31.10 bitrate=N/A speed=16.9x    frame= 6638 fps=402 q=-0.0 size=N/A time=00:04:36.85 bitrate=N/A speed=16.8x    frame= 6820 fps=400 q=-0.0 size=N/A time=00:04:44.45 bitrate=N/A speed=16.7x    frame= 7096 fps=404 q=-0.0 size=N/A time=00:04:55.96 bitrate=N/A speed=16.9x    frame= 7380 fps=408 q=-0.0 size=N/A time=00:05:07.80 bitrate=N/A speed=  17x    frame= 7655 fps=412 q=-0.0 size=N/A time=00:05:19.27 bitrate=N/A speed=17.2x    frame= 7904 fps=413 q=-0.0 size=N/A time=00:05:29.66 bitrate=N/A speed=17.2x    frame= 8182 fps=417 q=-0.0 size=N/A time=00:05:41.25 bitrate=N/A speed=17.4x    frame= 8463 fps=420 q=-0.0 size=N/A time=00:05:52.97 bitrate=N/A speed=17.5x    frame= 8739 fps=423 q=-0.0 size=N/A time=00:06:04.48 bitrate=N/A speed=17.6x    frame= 9005 fps=425 q=-0.0 size=N/A time=00:06:15.58 bitrate=N/A speed=17.7x    frame= 9286 fps=428 q=-0.0 size=N/A time=00:06:27.30 bitrate=N/A speed=17.8x    frame= 9571 fps=431 q=-0.0 size=N/A time=00:06:39.19 bitrate=N/A speed=  18x    frame= 9848 fps=433 q=-0.0 size=N/A time=00:06:50.74 bitrate=N/A speed=18.1x    frame=10117 fps=435 q=-0.0 size=N/A time=00:07:01.96 bitrate=N/A speed=18.2x    frame=10396 fps=438 q=-0.0 size=N/A time=00:07:13.59 bitrate=N/A speed=18.3x    frame=10638 fps=438 q=-0.0 size=N/A time=00:07:23.69 bitrate=N/A speed=18.3x    frame=10892 fps=439 q=-0.0 size=N/A time=00:07:34.28 bitrate=N/A speed=18.3x    frame=11154 fps=441 q=-0.0 size=N/A time=00:07:45.21 bitrate=N/A speed=18.4x    frame=11417 fps=442 q=-0.0 size=N/A time=00:07:56.18 bitrate=N/A speed=18.4x    frame=11680 fps=444 q=-0.0 size=N/A time=00:08:07.15 bitrate=N/A speed=18.5x    frame=11936 fps=444 q=-0.0 size=N/A time=00:08:17.83 bitrate=N/A speed=18.5x    frame=12213 fps=446 q=-0.0 size=N/A time=00:08:29.38 bitrate=N/A speed=18.6x    frame=12491 fps=448 q=-0.0 size=N/A time=00:08:40.97 bitrate=N/A speed=18.7x    frame=12762 fps=449 q=-0.0 size=N/A time=00:08:52.28 bitrate=N/A speed=18.7x    frame=13047 fps=451 q=-0.0 size=N/A time=00:09:04.16 bitrate=N/A speed=18.8x    frame=13306 fps=452 q=-0.0 size=N/A time=00:09:14.97 bitrate=N/A speed=18.9x    frame=13570 fps=453 q=-0.0 size=N/A time=00:09:25.98 bitrate=N/A speed=18.9x    frame=13799 fps=453 q=-0.0 size=N/A time=00:09:35.53 bitrate=N/A speed=18.9x    frame=14022 fps=453 q=-0.0 size=N/A time=00:09:44.83 bitrate=N/A speed=18.9x    frame=14245 fps=452 q=-0.0 size=N/A time=00:09:54.13 bitrate=N/A speed=18.9x    frame=14509 fps=453 q=-0.0 size=N/A time=00:10:05.14 bitrate=N/A speed=18.9x    frame=14757 fps=454 q=-0.0 size=N/A time=00:10:15.48 bitrate=N/A speed=18.9x    frame=15025 fps=455 q=-0.0 size=N/A time=00:10:26.66 bitrate=N/A speed=  19x    frame=15315 fps=456 q=-0.0 size=N/A time=00:10:38.76 bitrate=N/A speed=  19x    frame=15574 fps=457 q=-0.0 size=N/A time=00:10:49.56 bitrate=N/A speed=19.1x    frame=15849 fps=458 q=-0.0 size=N/A time=00:11:01.03 bitrate=N/A speed=19.1x    frame=16122 fps=459 q=-0.0 size=N/A time=00:11:12.42 bitrate=N/A speed=19.2x    frame=16403 fps=461 q=-0.0 size=N/A time=00:11:24.14 bitrate=N/A speed=19.2x    frame=16655 fps=461 q=-0.0 size=N/A time=00:11:34.65 bitrate=N/A speed=19.2x    frame=16939 fps=462 q=-0.0 size=N/A time=00:11:46.49 bitrate=N/A speed=19.3x    frame=17230 fps=464 q=-0.0 size=N/A time=00:11:58.63 bitrate=N/A speed=19.3x    frame=17515 fps=465 q=-0.0 size=N/A time=00:12:10.52 bitrate=N/A speed=19.4x    frame=17798 fps=466 q=-0.0 size=N/A time=00:12:22.32 bitrate=N/A speed=19.4x    frame=18017 fps=465 q=-0.0 size=N/A time=00:12:31.45 bitrate=N/A speed=19.4x    frame=18237 fps=465 q=-0.0 size=N/A time=00:12:40.63 bitrate=N/A speed=19.4x    frame=18476 fps=465 q=-0.0 size=N/A time=00:12:50.60 bitrate=N/A speed=19.4x    frame=18680 fps=464 q=-0.0 size=N/A time=00:12:59.11 bitrate=N/A speed=19.4x    frame=18906 fps=464 q=-0.0 size=N/A time=00:13:08.53 bitrate=N/A speed=19.3x    frame=19158 fps=464 q=-0.0 size=N/A time=00:13:19.04 bitrate=N/A speed=19.4x    frame=19431 fps=465 q=-0.0 size=N/A time=00:13:30.43 bitrate=N/A speed=19.4x    frame=19726 fps=466 q=-0.0 size=N/A time=00:13:42.73 bitrate=N/A speed=19.4x    frame=19940 fps=466 q=-0.0 size=N/A time=00:13:51.66 bitrate=N/A speed=19.4x    frame=20161 fps=465 q=-0.0 size=N/A time=00:14:00.88 bitrate=N/A speed=19.4x    frame=20403 fps=465 q=-0.0 size=N/A time=00:14:10.97 bitrate=N/A speed=19.4x    frame=20676 fps=466 q=-0.0 size=N/A time=00:14:22.36 bitrate=N/A speed=19.4x    frame=20946 fps=467 q=-0.0 size=N/A time=00:14:33.62 bitrate=N/A speed=19.5x    frame=21210 fps=467 q=-0.0 size=N/A time=00:14:44.63 bitrate=N/A speed=19.5x    frame=21487 fps=468 q=-0.0 size=N/A time=00:14:56.18 bitrate=N/A speed=19.5x    frame=21729 fps=468 q=-0.0 size=N/A time=00:15:06.28 bitrate=N/A speed=19.5x    frame=21979 fps=468 q=-0.0 size=N/A time=00:15:16.70 bitrate=N/A speed=19.5x    frame=22237 fps=468 q=-0.0 size=N/A time=00:15:27.46 bitrate=N/A speed=19.5x    frame=22523 fps=469 q=-0.0 size=N/A time=00:15:39.39 bitrate=N/A speed=19.6x    frame=22796 fps=470 q=-0.0 size=N/A time=00:15:50.78 bitrate=N/A speed=19.6x    frame=23035 fps=470 q=-0.0 size=N/A time=00:16:00.75 bitrate=N/A speed=19.6x    frame=23312 fps=471 q=-0.0 size=N/A time=00:16:12.30 bitrate=N/A speed=19.6x    frame=23581 fps=471 q=-0.0 size=N/A time=00:16:23.52 bitrate=N/A speed=19.7x    frame=23845 fps=472 q=-0.0 size=N/A time=00:16:34.53 bitrate=N/A speed=19.7x    frame=24129 fps=472 q=-0.0 size=N/A time=00:16:46.38 bitrate=N/A speed=19.7x    frame=24404 fps=473 q=-0.0 size=N/A time=00:16:57.85 bitrate=N/A speed=19.7x    frame=24660 fps=473 q=-0.0 size=N/A time=00:17:08.52 bitrate=N/A speed=19.7x    frame=24912 fps=473 q=-0.0 size=N/A time=00:17:19.03 bitrate=N/A speed=19.7x    frame=25160 fps=473 q=-0.0 size=N/A time=00:17:29.38 bitrate=N/A speed=19.7x    frame=25425 fps=474 q=-0.0 size=N/A time=00:17:40.43 bitrate=N/A speed=19.8x    frame=25669 fps=474 q=-0.0 size=N/A time=00:17:50.61 bitrate=N/A speed=19.8x    frame=25921 fps=474 q=-0.0 size=N/A time=00:18:01.12 bitrate=N/A speed=19.8x    frame=26180 fps=474 q=-0.0 size=N/A time=00:18:11.92 bitrate=N/A speed=19.8x    frame=26441 fps=474 q=-0.0 size=N/A time=00:18:22.81 bitrate=N/A speed=19.8x    frame=26706 fps=475 q=-0.0 size=N/A time=00:18:33.86 bitrate=N/A speed=19.8x    frame=26954 fps=475 q=-0.0 size=N/A time=00:18:44.20 bitrate=N/A speed=19.8x    frame=27220 fps=475 q=-0.0 size=N/A time=00:18:55.30 bitrate=N/A speed=19.8x    frame=27499 fps=476 q=-0.0 size=N/A time=00:19:06.93 bitrate=N/A speed=19.8x    frame=27762 fps=476 q=-0.0 size=N/A time=00:19:17.90 bitrate=N/A speed=19.9x    frame=28058 fps=477 q=-0.0 size=N/A time=00:19:30.25 bitrate=N/A speed=19.9x    frame=28341 fps=478 q=-0.0 size=N/A time=00:19:42.05 bitrate=N/A speed=19.9x    frame=28614 fps=478 q=-0.0 size=N/A time=00:19:53.44 bitrate=N/A speed=19.9x    frame=28903 fps=479 q=-0.0 size=N/A time=00:20:05.49 bitrate=N/A speed=  20x    frame=29185 fps=479 q=-0.0 size=N/A time=00:20:17.25 bitrate=N/A speed=  20x    frame=29452 fps=480 q=-0.0 size=N/A time=00:20:28.39 bitrate=N/A speed=  20x    frame=29731 fps=480 q=-0.0 size=N/A time=00:20:40.03 bitrate=N/A speed=  20x    frame=29987 fps=480 q=-0.0 size=N/A time=00:20:50.70 bitrate=N/A speed=  20x    frame=30253 fps=481 q=-0.0 size=N/A time=00:21:01.80 bitrate=N/A speed=  20x    frame=30528 fps=481 q=-0.0 size=N/A time=00:21:13.27 bitrate=N/A speed=20.1x    frame=30790 fps=481 q=-0.0 size=N/A time=00:21:24.19 bitrate=N/A speed=20.1x    frame=31079 fps=482 q=-0.0 size=N/A time=00:21:36.25 bitrate=N/A speed=20.1x    frame=31374 fps=482 q=-0.0 size=N/A time=00:21:48.55 bitrate=N/A speed=20.1x    frame=31636 fps=483 q=-0.0 size=N/A time=00:21:59.48 bitrate=N/A speed=20.1x    frame=31901 fps=483 q=-0.0 size=N/A time=00:22:10.53 bitrate=N/A speed=20.1x    frame=32167 fps=483 q=-0.0 size=N/A time=00:22:21.63 bitrate=N/A speed=20.1x    frame=32377 fps=483 q=-0.0 size=N/A time=00:22:30.39 bitrate=N/A speed=20.1x    frame=32590 fps=482 q=-0.0 size=N/A time=00:22:39.27 bitrate=N/A speed=20.1x    frame=32758 fps=481 q=-0.0 size=N/A time=00:22:46.28 bitrate=N/A speed=20.1x    frame=32992 fps=481 q=-0.0 size=N/A time=00:22:56.04 bitrate=N/A speed=  20x    frame=33232 fps=481 q=-0.0 size=N/A time=00:23:06.05 bitrate=N/A speed=  20x    frame=33487 fps=481 q=-0.0 size=N/A time=00:23:16.68 bitrate=N/A speed=  20x    frame=33709 fps=480 q=-0.0 size=N/A time=00:23:25.94 bitrate=N/A speed=  20x    frame=33948 fps=480 q=-0.0 size=N/A time=00:23:35.91 bitrate=N/A speed=  20x    frame=34186 fps=480 q=-0.0 size=N/A time=00:23:45.84 bitrate=N/A speed=  20x    [Parsed_ssim_10 @ 0000028e4a6c9dc0] SSIM Y:0.995999 (23.977825) U:0.996202 (24.204991) V:0.995904 (23.876127) All:0.996017 (23.997608)
[out#0/null @ 0000028e48265880] video:14707KiB audio:267740KiB subtitle:0KiB other streams:0KiB global headers:0KiB muxing overhead: unknown
frame=34228 fps=480 q=-0.0 Lsize=N/A time=00:23:47.59 bitrate=N/A speed=  20x    
